<svg xmlns="http://www.w3.org/2000/svg" viewBox="0 0 182.09 182.1"><defs><style>.cls-1{fill:#58595b;}.cls-2{fill:#414042;}.cls-3{fill:#507874;}.cls-4{fill:#d1d3d4;}.cls-5{fill:#bcbec0;}</style></defs><g id="Layer_2" data-name="Layer 2"><g id="Layer_1-2" data-name="Layer 1"><rect class="cls-1" width="182.09" height="182.1"/><path class="cls-2" d="M182.09,83.94V182.1H84.34L47.52,145.28a7.79,7.79,0,0,1-.44-2.57V39.4a7.83,7.83,0,0,1,7.82-7.83h72.3a7.69,7.69,0,0,1,3.22.7Z"/><path class="cls-3" d="M135,39.4V142.71a7.83,7.83,0,0,1-7.83,7.82H54.9a7.54,7.54,0,0,1-2.57-.44c-.19-.06-.38-.14-.57-.22a7.77,7.77,0,0,1-4-4c-.08-.19-.16-.38-.22-.57a7.79,7.79,0,0,1-.44-2.57V39.4a7.83,7.83,0,0,1,7.82-7.83h72.3a7.69,7.69,0,0,1,3.22.7,6.1,6.1,0,0,1,.72.37A7.63,7.63,0,0,1,134,35.46a6.1,6.1,0,0,1,.37.72A7.69,7.69,0,0,1,135,39.4Z"/><rect class="cls-4" x="53.03" y="72.02" width="21.37" height="15.65" rx="5.28"/><rect class="cls-4" x="107.69" y="72.02" width="21.37" height="15.65" rx="5.28"/><rect class="cls-4" x="80.36" y="72.02" width="21.37" height="15.65" rx="5.28"/><rect class="cls-4" x="53.03" y="91.36" width="21.37" height="15.65" rx="5.28"/><rect class="cls-4" x="107.69" y="91.36" width="21.37" height="15.65" rx="5.28"/><rect class="cls-4" x="80.36" y="91.36" width="21.37" height="15.65" rx="5.28"/><rect class="cls-4" x="53.03" y="110.7" width="21.37" height="15.65" rx="5.28"/><rect class="cls-4" x="107.69" y="110.7" width="21.37" height="15.65" rx="5.28"/><rect class="cls-4" x="80.36" y="110.7" width="21.37" height="15.65" rx="5.28"/><rect class="cls-4" x="53.03" y="130.03" width="21.37" height="15.65" rx="5.28"/><rect class="cls-4" x="107.69" y="130.03" width="21.37" height="15.65" rx="5.28"/><rect class="cls-4" x="80.36" y="130.03" width="21.37" height="15.65" rx="5.28"/><path class="cls-5" d="M129.05,43.83V63.28a4.43,4.43,0,0,1-4.43,4.44H57.25A4.22,4.22,0,0,1,53,63.49V43.83a7.64,7.64,0,0,1,7.62-7.62h60.78A7.62,7.62,0,0,1,129.05,43.83Z"/><path class="cls-4" d="M129.05,43.83V63.28a4.43,4.43,0,0,1-4.43,4.44h-29C74.21,64,57.83,53.35,53.93,40.25a7.6,7.6,0,0,1,6.72-4h60.78A7.62,7.62,0,0,1,129.05,43.83Z"/></g></g></svg>