<svg xmlns="http://www.w3.org/2000/svg" viewBox="0 0 182.08 182.09"><defs><style>.cls-1{fill:#58595b;}.cls-2{fill:#414042;}.cls-3{fill:#c49a5a;}.cls-4{fill:#d1d3d4;}</style></defs><g id="Layer_2" data-name="Layer 2"><g id="Layer_1-2" data-name="Layer 1"><rect class="cls-1" width="182.08" height="182.09"/><path class="cls-2" d="M182.08,99.39v82.7h-82L49.54,131.55l-9.49-9.49A50.18,50.18,0,0,1,29,90.81c0-.82,0-1.64.06-2.45L80.57,36.8A70.59,70.59,0,0,1,91,36a66.53,66.53,0,0,1,42.63,15Z"/><path class="cls-3" d="M162.2,133.92C119.08,151,28.51,154.71,29,87.36,32,19.42,150.39,18.24,153.1,88.08,155.08,119.29,124.24,120.32,162.2,133.92Z"/><path class="cls-4" d="M66.76,115.79a34,34,0,0,0,5.32-7.88,18.65,18.65,0,0,0,1.52-7.55,9.28,9.28,0,0,0-.79-4,6.16,6.16,0,0,0-2.47-2.72,16,16,0,0,0-4.21-1.36Q55.71,89.93,55.7,80.16a12.69,12.69,0,0,1,3.79-9.41A13.06,13.06,0,0,1,69.07,67a17.31,17.31,0,0,1,13.8,6.3q5.37,6.3,5.37,16.17a27.14,27.14,0,0,1-5.74,16.91Q76.76,113.87,66,118.29l-.42-1.36Zm42.85,0a28.48,28.48,0,0,0,5.27-7.6,19,19,0,0,0,1.68-7.83,8.86,8.86,0,0,0-.84-4,6.77,6.77,0,0,0-2.42-2.72,15.85,15.85,0,0,0-4.21-1.36Q98.67,89.7,98.66,80.16a12.77,12.77,0,0,1,3.74-9.41A13,13,0,0,1,112,67a17.3,17.3,0,0,1,13.79,6.3q5.37,6.3,5.37,16.17a26.64,26.64,0,0,1-5.74,16.73q-5.74,7.44-16.48,12.09l-.42-1.36Z"/></g></g></svg>