<svg xmlns="http://www.w3.org/2000/svg" viewBox="0 0 182.08 182.09"><defs><style>.cls-1{fill:#58595b;}.cls-2{fill:#414042;}.cls-3{fill:#416d9d;}.cls-4{fill:#231f20;}.cls-5{font-size:36px;fill:#939598;font-family:SegoeUI-Bold, Segoe UI;font-weight:700;}</style></defs><g id="Layer_2" data-name="Layer 2"><g id="Layer_1-2" data-name="Layer 1"><rect class="cls-1" width="182.08" height="182.09"/><path class="cls-2" d="M182.08,74.87V182.09H74.86L30.31,137.54l-2.71-2.71a6.3,6.3,0,0,1-.73-3V99.38l3.91-3.91L82.42,43.83h66.4a6.4,6.4,0,0,1,2.93.71l2.75,2.75Z"/><path class="cls-3" d="M155.21,50.22v81.65a6.39,6.39,0,0,1-6.39,6.39H33.26a6.4,6.4,0,0,1-6.39-6.39V50.22a6.39,6.39,0,0,1,6.39-6.39H148.82a6.39,6.39,0,0,1,6.39,6.39Z"/><path class="cls-4" d="M151.3,51.3v79.49a4.59,4.59,0,0,1-3.65,4.5h0a4.73,4.73,0,0,1-.93.09H35.37a4.58,4.58,0,0,1-4.59-4.59V51.3a4.2,4.2,0,0,1,.16-1.18,4.56,4.56,0,0,1,4.43-3.41H146.71A4.58,4.58,0,0,1,151.3,51.3Z"/><text class="cls-5" transform="translate(38.87 79.31)">&gt;_</text></g></g></svg>