<svg xmlns="http://www.w3.org/2000/svg" viewBox="0 0 182.08 182.1"><defs><style>.cls-1{fill:#58595b;}.cls-2{fill:#414042;}.cls-3{fill:none;stroke:#d1d3d4;stroke-miterlimit:10;stroke-width:10px;}.cls-4{fill:#d1d3d4;}</style></defs><g id="Layer_2" data-name="Layer 2"><g id="Layer_1-2" data-name="Layer 1"><rect class="cls-1" width="182.08" height="182.1"/><path class="cls-2" d="M182.08,91.43V182.1H90.93L52.29,143.46a65.18,65.18,0,0,0,92.43-89.39Z"/><circle class="cls-3" cx="91.04" cy="91.05" r="59.91"/><path class="cls-4" d="M101.49,117.17a50.53,50.53,0,0,1-6.23,1.39,37.66,37.66,0,0,1-5.68.44q-3.81,0-5.18-1.08c-.91-.72-1.36-2.16-1.36-4.34q0-1.87.7-8.4A106.49,106.49,0,0,0,84.44,94a30.28,30.28,0,0,0-.93-8.28,13.32,13.32,0,0,0-3-5.42,40.1,40.1,0,0,1,5.92-1.37,39.49,39.49,0,0,1,6-.47c2.39,0,4,.31,4.91.92s1.32,1.75,1.32,3.4q0,.66-.7,7.14a114.24,114.24,0,0,0-.7,12.32,33,33,0,0,0,1.05,9.06A14.43,14.43,0,0,0,101.49,117.17ZM100.87,66q0,2.33-3.11,3.88a17.68,17.68,0,0,1-7.87,1.55,14.54,14.54,0,0,1-6.54-1.23c-1.61-.81-2.41-1.91-2.41-3.3s1-2.82,3.11-3.9a16.35,16.35,0,0,1,7.55-1.61,14.87,14.87,0,0,1,6.66,1.31Q100.87,64,100.87,66Z"/></g></g></svg>