<svg xmlns="http://www.w3.org/2000/svg" viewBox="0 0 182.08 182.09"><defs><style>.cls-1{fill:#58595b;}.cls-2{fill:#414042;}.cls-3{fill:#525592;}.cls-4{fill:#bcbec0;}.cls-5{fill:#d1d3d4;}</style></defs><g id="Layer_2" data-name="Layer 2"><g id="Layer_1-2" data-name="Layer 1"><rect class="cls-1" width="182.08" height="182.09"/><path class="cls-2" d="M182.08,113.23v68.86H119.87L42.71,104.93a46.69,46.69,0,0,1-9.39-23.41L39,75.89l2.33-2.34L79.2,35.63,84.87,30a46.59,46.59,0,0,1,23,9.06Z"/><path class="cls-3" d="M144.66,162.93l-6.22,4.36a4.53,4.53,0,0,1-6.32-1.13l-33.9-48.41a46.8,46.8,0,0,1-54.06-10.88,47.42,47.42,0,0,1-7-10,46.78,46.78,0,0,1,75.62-53.59,45,45,0,0,1,4.2,5.16,48,48,0,0,1,3.42,5.72,46.81,46.81,0,0,1-8.51,54l33.9,48.41A4.54,4.54,0,0,1,144.66,162.93Z"/><path class="cls-4" d="M119.51,71.84A41,41,0,1,1,75.14,34.6,40.75,40.75,0,0,1,119.51,71.84Z"/><path class="cls-5" d="M115.82,92.73a40.66,40.66,0,0,1-11.72,14.81,75.46,75.46,0,0,1-18.62-5.94c-27-12.61-41.84-38-33.08-56.8.21-.47.44-.92.68-1.35a41,41,0,0,1,62.74,49.28Z"/></g></g></svg>