<svg xmlns="http://www.w3.org/2000/svg" viewBox="0 0 182.08 182.1"><defs><style>.cls-1{fill:#58595b;}.cls-2{fill:#414042;}.cls-3{fill:#cccccb;}.cls-4,.cls-5{fill:#da975e;}.cls-5{opacity:0.75;}</style></defs><g id="Layer_2" data-name="Layer 2"><g id="Layer_1-2" data-name="Layer 1"><rect class="cls-1" width="182.08" height="182.1"/><path class="cls-2" d="M182.08,74.55V182.1H67.6L27.25,141.35l-2.79-2.82a6.68,6.68,0,0,1-.75-3.08V101.64l4-4.07L81,43.83h68.43a6.67,6.67,0,0,1,3,.74l2.83,2.87Z"/><path class="cls-3" d="M155.2,50a2.17,2.17,0,0,1,0,.26v86.86a1.17,1.17,0,0,1-1.18,1.17H33.26a6.32,6.32,0,0,1-5.66-3.43,6.3,6.3,0,0,1-.73-3V45a1.18,1.18,0,0,1,1.18-1.18H149.2a6,6,0,0,1,6,6A.57.57,0,0,1,155.2,50Z"/><polygon class="cls-4" points="35.06 41.56 18.97 41.56 27.01 33.35 35.06 41.56"/><path class="cls-4" d="M157.37,134.83v6.48H29.92a6.13,6.13,0,0,1-6.12-6.15V41.56h6.43v93.27Z"/><polygon class="cls-4" points="165.53 138.07 157.37 146.17 157.37 129.97 165.53 138.07"/><rect class="cls-5" x="40.49" y="89.45" width="14.12" height="39.71"/><rect class="cls-5" x="57.83" y="74.31" width="14.12" height="54.85"/><rect class="cls-5" x="75.19" y="68.27" width="14.12" height="60.88"/><rect class="cls-5" x="92.82" y="74.31" width="14.12" height="54.85"/><rect class="cls-5" x="110.48" y="98.71" width="14.12" height="30.44"/><rect class="cls-5" x="128.12" y="85.59" width="14.12" height="43.57"/></g></g></svg>